<svg width="22" height="13" viewBox="0 0 22 13" fill="none" xmlns="http://www.w3.org/2000/svg">
<path d="M0.400122 8.44838L4.24012 1.16838H6.64012L2.70412 8.44838H0.400122ZM0.400122 9.72838V8.44838L1.20012 7.82438H9.26412V9.72838H0.400122ZM5.71212 12.4164V5.24838H7.85612V12.4164H5.71212ZM11.54 12.5764C11.156 12.5764 10.8413 12.4484 10.596 12.1924C10.3507 11.9364 10.228 11.6217 10.228 11.2484C10.228 10.875 10.3507 10.5604 10.596 10.3044C10.8413 10.0484 11.156 9.92038 11.54 9.92038C11.9133 9.92038 12.2227 10.0484 12.468 10.3044C12.7133 10.5604 12.836 10.875 12.836 11.2484C12.836 11.6217 12.7133 11.9364 12.468 12.1924C12.2227 12.4484 11.9133 12.5764 11.54 12.5764ZM15.1244 12.4164L18.5484 7.64838L19.3324 7.40838C19.2044 7.65371 19.055 7.87238 18.8844 8.06438C18.7244 8.24571 18.5164 8.38438 18.2604 8.48038C18.0044 8.57638 17.6684 8.62438 17.2524 8.62438C16.591 8.62438 15.983 8.46971 15.4284 8.16038C14.8844 7.84038 14.447 7.40305 14.1164 6.84838C13.7857 6.29372 13.6204 5.65905 13.6204 4.94438C13.6204 4.21905 13.8017 3.55771 14.1644 2.96038C14.527 2.35238 15.0177 1.87238 15.6364 1.52038C16.255 1.16838 16.943 0.992381 17.7004 0.992381C18.4684 0.992381 19.1564 1.16838 19.7644 1.52038C20.383 1.87238 20.8684 2.34171 21.2204 2.92838C21.583 3.51505 21.7644 4.17105 21.7644 4.89638C21.7644 5.88838 21.4177 6.89105 20.7244 7.90438L17.6044 12.4164H15.1244ZM17.7004 6.96038C18.0737 6.96038 18.4044 6.87505 18.6924 6.70438C18.9804 6.53371 19.2044 6.29905 19.3644 6.00038C19.535 5.69105 19.6204 5.34971 19.6204 4.97638C19.6204 4.58171 19.535 4.23505 19.3644 3.93638C19.2044 3.63771 18.9804 3.40305 18.6924 3.23238C18.4044 3.05105 18.0737 2.96038 17.7004 2.96038C17.327 2.96038 16.991 3.05105 16.6924 3.23238C16.4044 3.40305 16.175 3.63771 16.0044 3.93638C15.8444 4.23505 15.7644 4.58171 15.7644 4.97638C15.7644 5.36038 15.8444 5.70171 16.0044 6.00038C16.175 6.29905 16.4097 6.53371 16.7084 6.70438C17.007 6.87505 17.3377 6.96038 17.7004 6.96038Z" fill="#FEEA35"/>
</svg>
